# xmcd
#
# Track frame offsets:
# 150
# 1676
# 16290
# 18293
# 39786
# 56598
# 61254
# 83827
# 104076
# 113751
# 147462
# 194440
# 214241
# 234591
# 256310
# 289192
# 305565
# 307236
# 308911
#
# Disc length: 4598 seconds
#
#
# Revision: 0
# Processed by: cddbd v1.5.1PL2 Copyright (c) Steve Scherf et al.
# Submitted via: FreeRIP 2.944 
#
DISCID=0911f413
DTITLE=The Roots - Phrenology
DYEAR=2002
DGENRE=Hip-Hop
TTITLE0=Phrentrow
TTITLE1=Rock You
TTITLE2=!!!!!!
TTITLE3=Sacrifice
TTITLE4=Rolling With Heat
TTITLE5=WAOK (Ay) Rollcall
TTITLE6=Thought @ Work
TTITLE7=Seed (2.0)
TTITLE8=
TTITLE9=Break You Off
TTITLE10=Water
TTITLE11=Quills
TTITLE12=Pussy Galore
TTITLE13=Complexity
TTITLE14=Something In The Way Of Things (In Town)
TTITLE15=Hip-Hop Your The Love Of My Life
TTITLE16=[silent]
TTITLE17=[silent]
TTITLE18=Rhymes and Ammo/Thirsty
EXTD=
EXTT0=
EXTT1=
EXTT2=
EXTT3=
EXTT4=
EXTT5=
EXTT6=
EXTT7=
EXTT8=
EXTT9=
EXTT10=
EXTT11=
EXTT12=
EXTT13=
EXTT14=
EXTT15=
EXTT16=
EXTT17=
EXTT18=
PLAYORDER=
